PathFileType	4	(X/Y/Z)	TVC_41_BWA_06_walk_RCNL2025.trc
DataRate	CameraRate	NumFrames	NumMarkers	Units	OrigDataRate	OrigDataStartFrame	OrigNumFrames
100	100	4	27	mm	100	651	867
Frame#	Time	R_Shoulder			L_Shoulder			C7			J_Notch			R_Elbow			L_Elbow			R_Wrist			L_Wrist			R_Asis			L_Asis			R_Psis			L_Psis			Sacral			Thoracic			Sternum			R_Thigh_Lateral			R_Knee_Lateral			R_Shank_Lateral			R_Ankle_Lateral			R_Heel			R_Toe			L_Thigh_Lateral			L_Knee_Lateral			L_Shank_Lateral			L_Ankle_Lateral			L_Heel			L_Toe		
		X1	Y1	Z1	X2	Y2	Z2	X3	Y3	Z3	X4	Y4	Z4	X5	Y5	Z5	X6	Y6	Z6	X7	Y7	Z7	X8	Y8	Z8	X9	Y9	Z9	X10	Y10	Z10	X11	Y11	Z11	X12	Y12	Z12	X13	Y13	Z13	X14	Y14	Z14	X15	Y15	Z15	X16	Y16	Z16	X17	Y17	Z17	X18	Y18	Z18	X19	Y19	Z19	X20	Y20	Z20	X21	Y21	Z21	X22	Y22	Z22	X23	Y23	Z23	X24	Y24	Z24	X25	Y25	Z25	X26	Y26	Z26	X27	Y27	Z27
651	6.50000000	-320.072754	1247.991577	429.372925	-245.814224	1247.388916	99.084709	-328.476471	1310.778809	255.733139	-217.445786	1196.705200	285.593597	-448.099396	977.857971	436.366974	-307.316650	958.658264	38.889851	-261.139801	897.076843	457.326614	-224.344345	767.760162	32.809891	-319.637360	871.407104	399.120941	-261.604156	833.818115	167.240509	-459.650848	891.762146	290.637970	-444.319092	873.384827	202.710205	-451.984970	882.573486	246.674088	-396.550659	1022.383484	235.684860	-203.446671	1013.563904	281.685059	-389.819092	649.342468	480.419769	-408.815613	418.684967	394.588409	-462.040039	295.161163	454.109436	-482.439606	87.846046	378.231049	-528.405212	68.768013	327.018158	-375.264252	44.807346	385.815430	-287.083771	579.971008	67.548531	-210.815308	404.357574	161.000031	-239.340485	269.862701	96.535072	-297.622986	64.977516	156.902069	-345.450714	45.691509	192.684830	-178.166321	38.601334	185.996567
652	6.51000000	-318.411224	1249.679443	427.221039	-242.491806	1249.232178	97.362877	-325.978943	1312.413086	253.577026	-215.050995	1198.369019	283.941803	-446.195618	979.707642	433.405548	-303.420563	960.588196	36.533291	-259.080856	899.579498	454.608032	-220.108826	769.794373	30.615720	-319.054199	873.693054	397.368073	-257.966705	835.721497	165.470551	-456.815552	893.027405	287.701813	-440.948914	874.876343	199.887131	-448.882233	883.951874	243.794472	-393.702942	1023.933228	233.084732	-200.903214	1015.328430	280.082092	-388.265717	651.545715	478.427124	-406.133881	420.576813	393.196960	-460.609344	297.486847	452.519196	-481.070679	89.836212	377.132996	-526.661865	71.388603	325.477417	-374.556366	45.099854	385.563202	-286.305054	581.005066	65.822594	-212.276825	404.753815	159.932190	-240.626907	270.017273	95.495659	-297.842010	64.989868	156.501526	-345.706787	45.641838	192.203232	-178.256088	38.704403	185.879684
653	6.52000000	-316.766693	1251.326538	425.118042	-239.246964	1251.086426	95.686874	-323.539276	1314.036133	251.479706	-212.700302	1200.027100	282.315948	-444.295929	981.498657	430.500580	-299.592743	962.537231	34.185837	-257.007423	902.056427	451.948395	-215.885872	771.878021	28.398727	-318.505066	875.984558	395.603027	-254.399246	837.613098	163.697235	-453.998291	894.261597	284.812592	-437.633453	876.320435	197.114349	-445.815872	885.291016	240.963470	-390.897583	1025.472168	230.506927	-198.395340	1017.083618	278.477020	-386.613403	653.746765	476.503601	-403.325867	422.446564	391.876068	-458.978790	299.780762	451.055908	-479.650757	91.824783	376.148193	-524.925903	74.003357	324.108917	-373.827240	45.389797	385.297333	-285.839569	581.917664	64.115219	-213.845581	405.154968	158.801575	-241.983139	270.145569	94.442085	-297.970337	64.984871	156.150558	-345.899292	45.565258	191.776825	-178.270721	38.794678	185.779190
654	6.53000000	-315.140198	1252.914551	423.065552	-236.086563	1252.933228	94.055107	-321.160461	1315.632202	249.442734	-210.396225	1201.664795	280.715515	-442.401550	983.200684	427.655518	-295.836212	964.483398	31.849670	-254.920532	904.458496	449.371613	-211.677834	773.991150	26.160943	-317.953491	878.244019	393.829498	-250.905380	839.472107	161.919876	-451.201660	895.443359	281.980835	-434.378204	877.693604	194.400757	-442.789932	886.568481	238.190796	-388.138763	1026.984009	227.955673	-195.925446	1018.812683	276.868561	-384.801178	655.906616	474.650604	-400.378967	424.264069	390.624481	-457.146240	302.010376	449.717499	-478.191895	93.792267	375.280304	-523.213806	76.581398	322.914795	-373.083710	45.671169	385.017151	-285.583893	582.719299	62.433445	-215.470276	405.545319	157.629898	-243.357040	270.234314	93.399170	-298.025421	64.966492	155.856079	-346.038757	45.474350	191.415268	-178.226883	38.865822	185.701248
